<?xml version="1.0" encoding="UTF-8"?>
<svg width="250mm" height="40mm" version="1.1" viewBox="0 0 250 40" xmlns="http://www.w3.org/2000/svg" xmlns:cc="http://creativecommons.org/ns#" xmlns:dc="http://purl.org/dc/elements/1.1/" xmlns:rdf="http://www.w3.org/1999/02/22-rdf-syntax-ns#">
 <metadata>
  <rdf:RDF>
   <cc:Work rdf:about="">
    <dc:format>image/svg+xml</dc:format>
    <dc:type rdf:resource="http://purl.org/dc/dcmitype/StillImage"/>
    <dc:title/>
   </cc:Work>
  </rdf:RDF>
 </metadata>
 <g transform="translate(-.94496 -.77091)">
  <path d="m4.1069 35.089c2.9338 2.4155 5.4652 3.0214 7.9588 3.1281 0.56219 0.02418 1.6026-0.08044 2.203-0.16647 3.2118-0.46896 6.8114-2.4434 9.0813-6.2459-1.7147 3.8026-4.7133 6.6161-9.0445 7.6156-1.0728 0.24762-2.2327 0.36735-3.3131 0.29621-0.10858-0.0072-0.20321-0.02395-0.30411-0.03813 0 0-0.06975-0.01953-0.07975 0.01627-0.0042 0.03975 0.16601 0.0837 0.16601 0.0837 1.1395 0.3155 2.4871 0.52545 3.7386 0.50988 7.3071-0.09044 13.316-5.4738 13.434-13.668 0.01233-0.84235-0.03255-0.83631-0.07742-1.3032 0.77214 2.6626 0.98441 4.6396-0.38874 8.0806-0.01024 0.0179 0.08835 0.04999 0.05929 0.01696 2.3399-2.7165 2.5587-6.8448 1.6982-9.5267-0.56475-1.6317-1.3976-3.0655-2.7161-4.2892-1.7479-1.6221-3.3985-2.2394-5.2729-3.192-3.155-1.604-4.2989-3.6454-4.2989-5.4226 0-2.4824 2.0453-4.4559 4.4947-4.4949 0.1967-0.00303 0.24598-0.00119 0.44664 0.023482 0 0 0.1295 0.013952 0.05882-0.045106-0.17554-0.11579-0.44152-0.15903-0.57009-0.18205-0.42152-0.074866-0.59799-0.050688-0.82305-0.04999-2.604 0.00907-5.421 2.1883-5.4935 5.5654-0.03604 1.6866 0.81352 3.0388 1.7772 4.435 0.64333 0.93256 0.867 1.1634 1.6533 2.2399 2.8467 3.8965 2.4701 7.6732 2.2255 8.8227-1.1462 5.3831-5.2431 9.1843-11.144 9.1394-1.9887-0.01512-3.774-0.51801-5.4396-1.4692 0 0-0.12197-0.08114-0.17347-0.05673-0.058129 0.0279 0.14385 0.17693 0.14385 0.17693z" fill="#082d49" stroke="#082d49" stroke-miterlimit="3.8636" stroke-width=".011276"/>
  <g>
   <path d="m19.324 11.068c0-1.2125 0.98302-2.1955 2.195-2.1955 1.2127 0 2.1957 0.98302 2.1957 2.1955 0 1.2125-0.98302 2.1953-2.1957 2.1953-1.212 0-2.195-0.98278-2.195-2.1953" fill="#082d49"/>
   <path d="m26.539 5.9707c-2.9337-2.4152-5.4652-3.0211-7.959-3.1278-0.56196-0.024181-1.6022 0.080445-2.2027 0.16647-3.2118 0.46896-6.8114 2.4431-9.0816 6.2459 1.715-3.8028 4.7134-6.6161 9.0446-7.6156 1.0728-0.24761 2.2329-0.36758 3.3131-0.29597 0.10881 0.00697 0.20344 0.023713 0.30434 0.037896 0 0 0.06975 0.019528 0.07975-0.016272 4e-3 -0.039761-0.16624-0.0837-0.16624-0.0837-1.1395-0.31551-2.4866-0.52545-3.7382-0.50988-7.3075 0.090443-13.316 5.4738-13.435 13.668-0.012344 0.84258 0.032689 0.83631 0.077563 1.3032-0.77216-2.6624-0.98441-4.6396 0.38872-8.0806 0.010064-0.018137-0.088467-0.04999-0.059408-0.016971-2.3401 2.7165-2.5587 6.8448-1.6982 9.5267 0.56472 1.6317 1.3974 3.0655 2.7163 4.2892 1.7476 1.6222 3.3982 2.2395 5.2726 3.1922 3.155 1.6036 4.2992 3.6452 4.2992 5.4224 0 2.4826-2.0455 4.4559-4.4947 4.4949-0.19693 3e-3 -0.24599 0.0013-0.44663-0.02348 0 0-0.1295-0.01395-0.058821 0.04511 0.17531 0.11578 0.44129 0.15903 0.56986 0.18205 0.42176 0.07487 0.59799 0.05092 0.82329 0.04999 2.604-0.0091 5.4212-2.1883 5.4933-5.5654 0.03627-1.6866-0.81329-3.0388-1.7768-4.435-0.6438-0.93257-0.86746-1.1634-1.6538-2.2399-2.8465-3.8965-2.4699-7.6735-2.2253-8.8227 1.1462-5.3831 5.2429-9.1843 11.144-9.1394 1.9888 0.015112 3.774 0.51801 5.4398 1.4692 0 0 0.12206 0.081143 0.17345 0.056501 0.05812-0.027667-0.14392-0.17693-0.14392-0.17693" fill="#618f75"/>
   <path d="m6.9317 29.992c0-1.2125 0.98297-2.1955 2.1954-2.1955 1.2123 0 2.1953 0.98302 2.1953 2.1955 0 1.2125-0.98302 2.1955-2.1953 2.1955-1.2125 0-2.1954-0.98302-2.1954-2.1955" fill="#618f75"/>
  </g>
  <g fill="#082d49" stroke-width=".42963" aria-label="SHENTON COLLEGE DEC">
   <path d="m32.322 20.494v-3.7423h0.9144q0.3048 1.3547 1.0837 2.0659 0.77893 0.7112 1.9473 0.7112 1.016 0 1.6933-0.57573 0.69426-0.59267 0.69426-1.4732 0-0.7112-0.44027-1.2023-0.44026-0.508-1.524-0.98213l-1.1007-0.49107q-1.5579-0.7112-2.3029-1.5917-0.72813-0.89746-0.72813-2.0997 0-1.4732 1.016-2.3707 1.0329-0.9144 2.7093-0.9144 0.52493 0 1.6595 0.2032t1.4393 0.2032q0.18627 0 0.3556-0.033867t0.52493-0.1524v3.7084h-0.93133q-0.1016-0.6604-0.22013-0.9652-0.11853-0.32173-0.4064-0.67733-0.8128-1.0499-2.1675-1.0499-0.8636 0-1.3885 0.47413-0.52493 0.47413-0.52493 1.2361 0 0.67733 0.44027 1.0837 0.4064 0.42333 1.9643 1.1007 0.9144 0.38947 1.4055 0.64346 0.49107 0.254 0.93133 0.5588 1.4732 1.0499 1.4732 2.8787 0 1.6933-1.1176 2.7263-1.1176 1.0329-2.9464 1.0329-0.44027 0-2.286-0.32173-0.9652-0.16933-1.4055-0.16933-0.2032 0-0.3556 0.03387-0.13547 0.03387-0.4064 0.1524z"/>
   <path d="m41.873 20.41v-0.93133q0.508 0 0.762-0.08467 0.254-0.08467 0.47413-0.32173 0.22013-0.254 0.3048-0.62653 0.08467-0.37253 0.08467-1.1515v-6.0452q0-0.9144-0.03387-1.1345-0.033867-0.23706-0.22013-0.49106-0.18627-0.27093-0.47413-0.38947-0.28787-0.11853-0.82973-0.11853v-0.9144h5.4187v0.94826q-0.9652 0-1.3039 0.4572-0.32173 0.44027-0.32173 1.7441v1.9981h4.9784v-1.9981q0-1.3039-0.33867-1.7441-0.32173-0.4572-1.2869-0.4572v-0.94826h5.4187v0.9144q-0.54186 0-0.8128 0.1016-0.254 0.1016-0.4572 0.33867-0.18627 0.23707-0.23707 0.54187-0.0508 0.3048-0.0508 1.1515v6.0452q0 0.79586 0.06773 1.1345t0.3048 0.64346q0.22013 0.23707 0.4572 0.32173 0.254 0.08467 0.79587 0.08467v0.93133h-5.3848v-0.88053q0.54187 0 0.8128-0.1016 0.28787-0.11853 0.49106-0.38947 0.08467-0.11853 0.11853-0.22013 0.1016-0.254 0.1016-0.508v-3.7592h-4.9784v3.7592q0 0.38946 0.2032 0.69426 0.2032 0.28787 0.49106 0.4064t0.8128 0.11853v0.88053z"/>
   <path d="m55.318 9.1153v-0.9144h7.0781q0.99906 0 1.3885-0.016933 0.4064-0.016933 1.6256-0.1524v3.7253h-0.9144q-0.1524-0.6604-0.3048-1.0329-0.1524-0.37253-0.44026-0.67733-0.3556-0.38947-0.82973-0.52493-0.4572-0.1524-1.4393-0.1524h-2.3707v4.0132h1.0837q1.6256 0 2.032-0.254 0.42333-0.254 0.59266-1.3716h0.88053v4.6228h-0.88053q-0.1016-0.54186-0.11853-0.6096-0.06773-0.27093-0.23707-0.57573-0.1524-0.32173-0.508-0.47413-0.254-0.13547-0.54187-0.16933-0.28787-0.03387-1.0668-0.03387h-1.2531v2.794q0 1.1853 0.4064 1.5917 0.42333 0.38947 1.6933 0.38947 1.3716 0 2.1844-0.32173 0.4572-0.18627 0.8128-0.508 0.47413-0.42333 0.74507-1.6764h0.8636v3.7761q-0.82973-0.08467-1.4732-0.11853-0.62653-0.03387-1.7611-0.03387h-7.2136v-0.89746q0.52493 0 0.762-0.08467 0.254-0.1016 0.49107-0.33867 0.1524-0.1524 0.22013-0.32173 0.08467-0.18627 0.08467-0.4064v-7.0612q0-1.3208-0.28787-1.6933-0.27094-0.38946-1.3039-0.49106z"/>
   <path d="m66.799 20.41v-0.89746q0.93133 0 1.27-0.4572 0.33867-0.47413 0.33867-1.778v-7.0273q0-0.22013-0.06773-0.37253-0.0508-0.16933-0.22013-0.37253-0.1524-0.2032-0.4064-0.28787-0.254-0.1016-0.77893-0.1016v-0.9144h4.1995q0.1016 0.4572 0.16933 0.6604 0.08467 0.18627 0.16933 0.38947l0.82973 1.3039 2.8787 4.3857q0.16933 0.23707 0.28787 0.47413t0.23707 0.47413q0.22013 0.44026 0.32173 0.762 0.11853 0.32173 0.28787 0.98213l0.22013-0.01693-0.11853-0.88053q-0.1016-0.94826-0.1016-2.1505v-3.302q0-1.3547-0.32173-1.7611-0.32174-0.4064-1.4055-0.4064v-0.9144h4.8768v0.9144q-0.99906 0-1.3377 0.47413-0.33867 0.4572-0.33867 1.8119v6.2823l-0.01693 1.7272 0.13547 1.0329-1.8965 0.37253q-0.44027-0.99906-0.762-1.5917-0.3048-0.6096-0.74506-1.3039l-3.6237-5.588-0.44027-0.762q-0.16933-0.38947-0.27093-0.6604-0.1016-0.28787-0.22013-0.72813h-0.1524l0.0508 0.67733 0.0508 0.762v5.6896q0 0.89746 0.06773 1.2531t0.27093 0.57573q0.22013 0.22013 0.47413 0.3048 0.27093 0.08467 0.88053 0.13547v0.82973z"/>
   <path d="m79.634 11.757v-3.7084q0.77893 0.11853 1.1176 0.13547 0.33867 0.016933 1.3716 0.016933h4.7413q0.89746 0 1.1853-0.016933 0.3048-0.016933 1.2531-0.16933v3.7423h-0.9144q-0.28787-1.3039-0.84666-1.8457-0.5588-0.5588-1.6087-0.5588l-0.37253 0.016933v7.9756q0 1.3716 0.3556 1.7949 0.37253 0.4064 1.5748 0.4064v0.8636h-6.0791v-0.8636h0.16933q0.6096 0 0.8636-0.06773 0.27093-0.06773 0.52493-0.33867 0.23707-0.2032 0.3048-0.54186 0.06773-0.3556 0.06773-1.27v-7.9587h-0.28787q-0.88053 0-1.4055 0.37253-0.11853 0.084667-0.23707 0.2032-0.11853 0.11853-0.254 0.3048-0.22013 0.3048-0.33867 0.6096-0.11853 0.3048-0.23707 0.89746z"/>
   <path d="m89.371 14.382q0-2.8956 1.6595-4.7075 1.6764-1.8288 4.3349-1.8288 2.6247 0 4.2841 1.8119 1.6764 1.7949 1.6764 4.6567 0 2.8617-1.6764 4.6736-1.6595 1.7949-4.2841 1.7949-2.6585 0-4.3349-1.778-1.6595-1.7949-1.6595-4.6228zm5.9944-5.3509q-1.524 0-2.5569 1.5071-1.0329 1.5071-1.0329 3.7761 0 2.286 1.016 3.7931 1.016 1.4901 2.5739 1.4901 1.5409 0 2.5569-1.5071 1.016-1.5071 1.016-3.7761t-1.016-3.7761q-1.016-1.5071-2.5569-1.5071z"/>
   <path d="m102.43 20.41v-0.89746q0.93133 0 1.27-0.4572 0.33866-0.47413 0.33866-1.778v-7.0273q0-0.22013-0.0677-0.37253-0.0508-0.16933-0.22013-0.37253-0.1524-0.2032-0.4064-0.28787-0.254-0.1016-0.77894-0.1016v-0.9144h4.1995q0.1016 0.4572 0.16934 0.6604 0.0847 0.18627 0.16933 0.38947l0.82973 1.3039 2.8787 4.3857q0.16933 0.23707 0.28787 0.47413 0.11853 0.23707 0.23706 0.47413 0.22014 0.44026 0.32174 0.762 0.11853 0.32173 0.28786 0.98213l0.22014-0.01693-0.11854-0.88053q-0.1016-0.94826-0.1016-2.1505v-3.302q0-1.3547-0.32173-1.7611t-1.4055-0.4064v-0.9144h4.8768v0.9144q-0.99907 0-1.3377 0.47413-0.33867 0.4572-0.33867 1.8119v6.2823l-0.0169 1.7272 0.13546 1.0329-1.8965 0.37253q-0.44026-0.99906-0.762-1.5917-0.30479-0.6096-0.74506-1.3039l-3.6237-5.588-0.44026-0.762q-0.16934-0.38947-0.27094-0.6604-0.10159-0.28787-0.22013-0.72813h-0.1524l0.0508 0.67733 0.0508 0.762v5.6896q0 0.89746 0.0677 1.2531t0.27093 0.57573q0.22013 0.22013 0.47413 0.3048 0.27093 0.08467 0.88053 0.13547v0.82973z"/>
   <path d="m131.55 8.167v3.6745h-0.93133q-0.18627-0.64346-0.37254-0.94826-0.16933-0.32173-0.5588-0.7112-1.1176-1.0837-2.5569-1.0837-1.7103 0-2.7093 1.4393-0.99907 1.4393-0.99907 3.9116 0 2.4215 0.99907 3.8439 0.99906 1.4224 2.7093 1.4224 1.5579 0 2.5569-1.1007 0.3048-0.3556 0.47414-0.69426 0.16933-0.3556 0.4064-1.0837h0.94826v2.9803l-0.72813 0.32173q-0.8636 0.32173-1.9473 0.52493-1.0837 0.2032-1.9981 0.2032-2.6416 0-4.2333-1.7103-1.5748-1.7272-1.5748-4.6059 0-3.1496 1.778-4.9615 0.77893-0.79587 1.8288-1.2361 1.0668-0.44027 2.2013-0.44027 0.9144 0 2.4723 0.28787 0.5588 0.1016 0.6604 0.11853 0.1016 0 0.3048 0 0.32173 0 0.52493-0.033867t0.3556-0.0508z"/>
   <path d="m133.01 14.382q0-2.8956 1.6595-4.7075 1.6764-1.8288 4.3349-1.8288 2.6247 0 4.2841 1.8119 1.6764 1.7949 1.6764 4.6567 0 2.8617-1.6764 4.6736-1.6595 1.7949-4.2841 1.7949-2.6585 0-4.3349-1.778-1.6595-1.7949-1.6595-4.6228zm5.9944-5.3509q-1.524 0-2.5569 1.5071-1.0329 1.5071-1.0329 3.7761 0 2.286 1.016 3.7931 1.016 1.4901 2.5739 1.4901 1.5409 0 2.5569-1.5071 1.016-1.5071 1.016-3.7761t-1.016-3.7761q-1.016-1.5071-2.5569-1.5071z"/>
   <path d="m145.88 20.41v-0.8636q0.57573 0 0.82973-0.06773 0.27093-0.06773 0.508-0.27093 0.254-0.22013 0.33867-0.62653 0.1016-0.42333 0.1016-1.3039v-5.8759q0-0.84666-0.0677-1.2023-0.0677-0.37253-0.27093-0.6096-0.2032-0.254-0.47413-0.33867-0.254-0.1016-0.77894-0.1016v-0.94827h5.8081v0.93133q-0.6096 0-0.9144 0.1016-0.28787 0.084667-0.57573 0.28787-0.28787 0.2032-0.38947 0.59267-0.1016 0.38947-0.1016 1.2869v5.9267q0 0.7112 0.0508 0.98213 0.0508 0.27093 0.254 0.49106 0.44027 0.47413 1.6256 0.47413 0.93133 0 1.6425-0.37253 0.3556-0.18627 0.64346-0.508 0.28787-0.32173 0.42333-0.6604 0.1524-0.33867 0.254-0.9144h0.93134v3.81q-0.9652-0.11853-1.7611-0.16933-0.77893-0.0508-1.2869-0.0508z"/>
   <path d="m156.14 20.41v-0.8636q0.57573 0 0.82973-0.06773 0.27093-0.06773 0.508-0.27093 0.254-0.22013 0.33866-0.62653 0.1016-0.42333 0.1016-1.3039v-5.8759q0-0.84666-0.0677-1.2023-0.0677-0.37253-0.27093-0.6096-0.2032-0.254-0.47413-0.33867-0.254-0.1016-0.77894-0.1016v-0.94827h5.8081v0.93133q-0.6096 0-0.9144 0.1016-0.28787 0.084667-0.57573 0.28787-0.28787 0.2032-0.38947 0.59267-0.1016 0.38947-0.1016 1.2869v5.9267q0 0.7112 0.0508 0.98213 0.0508 0.27093 0.254 0.49106 0.44026 0.47413 1.6256 0.47413 0.93133 0 1.6425-0.37253 0.35559-0.18627 0.64346-0.508t0.42333-0.6604q0.1524-0.33867 0.254-0.9144h0.93133v3.81q-0.96519-0.11853-1.7611-0.16933-0.77893-0.0508-1.2869-0.0508z"/>
   <path d="m166.59 9.1153v-0.9144h7.0781q0.99906 0 1.3885-0.016933 0.4064-0.016933 1.6256-0.1524v3.7253h-0.9144q-0.1524-0.6604-0.3048-1.0329-0.1524-0.37253-0.44027-0.67733-0.3556-0.38947-0.82973-0.52493-0.4572-0.1524-1.4393-0.1524h-2.3707v4.0132h1.0837q1.6256 0 2.032-0.254 0.42333-0.254 0.59266-1.3716h0.88053v4.6228h-0.88053q-0.1016-0.54186-0.11853-0.6096-0.0677-0.27093-0.23707-0.57573-0.1524-0.32173-0.508-0.47413-0.254-0.13547-0.54186-0.16933-0.28787-0.03387-1.0668-0.03387h-1.2531v2.794q0 1.1853 0.40639 1.5917 0.42334 0.38947 1.6933 0.38947 1.3716 0 2.1844-0.32173 0.4572-0.18627 0.8128-0.508 0.47413-0.42333 0.74506-1.6764h0.8636v3.7761q-0.82973-0.08467-1.4732-0.11853-0.62654-0.03387-1.7611-0.03387h-7.2136v-0.89746q0.52493 0 0.76199-0.08467 0.254-0.1016 0.49107-0.33867 0.1524-0.1524 0.22013-0.32173 0.0847-0.18627 0.0847-0.4064v-7.0612q0-1.3208-0.28787-1.6933-0.27093-0.38947-1.3039-0.49107z"/>
   <path d="m188.94 7.9977v3.7592h-0.9144q-0.3048-0.84666-0.57573-1.2531t-0.77893-0.77893q-0.49107-0.38947-1.0668-0.57573-0.5588-0.18627-1.1515-0.18627-1.6595 0-2.6416 1.4563-0.98213 1.4563-0.98213 3.9116 0 2.3876 0.99907 3.81 0.99906 1.4224 2.6924 1.4224 0.54187 0 1.0668-0.1524t0.82973-0.38947q0.32173-0.254 0.32173-0.9144v-0.1016l-0.0169-0.4572-0.0169-0.57573q0-0.2032-0.0847-0.38947-0.0847-0.2032-0.22013-0.33867-0.18627-0.22013-0.508-0.3048-0.3048-0.1016-0.84667-0.1016h-0.44026v-0.9144h5.7573v0.93133q-0.49107 0-0.72813 0.06773-0.23707 0.06773-0.42333 0.27093-0.16934 0.2032-0.23707 0.6604-0.0677 0.44027-0.0677 1.5071 0 0.4064 0.0169 0.67733 0.0169 0.254 0.0677 0.62653l-0.82973 0.33867q-0.82973 0.32173-1.9304 0.52493-1.0837 0.2032-1.9135 0.2032-2.7601 0-4.3349-1.6764-1.5579-1.6933-1.5579-4.6567 0-3.048 1.6256-4.826 1.6256-1.778 4.4196-1.778 0.89747 0 1.6764 0.16933l0.54186 0.1016q0.1524 0.033867 0.54187 0.067733 0.4064 0.033867 0.59266 0.033867 0.4572 0 0.59267-0.016933 0.13547-0.033867 0.52493-0.1524z"/>
   <path d="m191.21 9.1153v-0.9144h7.0781q0.99906 0 1.3885-0.016933 0.4064-0.016933 1.6256-0.1524v3.7253h-0.91439q-0.1524-0.6604-0.3048-1.0329-0.1524-0.37253-0.44027-0.67733-0.3556-0.38947-0.82973-0.52493-0.4572-0.1524-1.4393-0.1524h-2.3707v4.0132h1.0837q1.6256 0 2.032-0.254 0.42334-0.254 0.59267-1.3716h0.88053v4.6228h-0.88053q-0.1016-0.54186-0.11853-0.6096-0.0677-0.27093-0.23707-0.57573-0.1524-0.32173-0.508-0.47413-0.254-0.13547-0.54187-0.16933-0.28786-0.03387-1.0668-0.03387h-1.2531v2.794q0 1.1853 0.4064 1.5917 0.42333 0.38947 1.6933 0.38947 1.3716 0 2.1844-0.32173 0.4572-0.18627 0.8128-0.508 0.47413-0.42333 0.74506-1.6764h0.8636v3.7761q-0.82973-0.08467-1.4732-0.11853-0.62653-0.03387-1.7611-0.03387h-7.2136v-0.89746q0.52494 0 0.762-0.08467 0.254-0.1016 0.49107-0.33867 0.1524-0.1524 0.22013-0.32173 0.0847-0.18627 0.0847-0.4064v-7.0612q0-1.3208-0.28787-1.6933-0.27093-0.38947-1.3039-0.49107z"/>
   <path d="m207.6 9.1492v-0.94826h5.4356q1.5071 0 2.4553 0.254 0.9652 0.254 1.8457 0.89746 1.1515 0.82973 1.778 2.1167 0.62653 1.27 0.62653 2.7771 0 1.4901-0.6604 2.8448-0.6604 1.3377-1.8288 2.2183-0.82974 0.62653-1.7103 0.8636-0.8636 0.23707-2.3537 0.23707h-5.571v-0.89746q0.98213 0 1.2869-0.42333 0.3048-0.42333 0.3048-1.7611v-5.9775q0-1.3377-0.32173-1.7611-0.3048-0.44027-1.2869-0.44027zm4.555 0.2032-0.7112 0.016933v7.9248q0 0.72813 0.0508 1.0329 0.0508 0.28787 0.22014 0.508 0.18626 0.2032 0.57573 0.32173 0.4064 0.1016 0.89746 0.1016 1.8965 0 3.0141-1.3377 1.1176-1.3377 1.1176-3.6068 0-1.7272-0.74507-2.9633-0.74506-1.2361-2.0659-1.6764-0.59266-0.18627-1.0668-0.254-0.47413-0.067733-1.2869-0.067733z"/>
   <path d="m220.86 9.1153v-0.9144h7.0781q0.99907 0 1.3885-0.016933 0.4064-0.016933 1.6256-0.1524v3.7253h-0.9144q-0.1524-0.6604-0.3048-1.0329-0.1524-0.37253-0.44026-0.67733-0.3556-0.38947-0.82973-0.52493-0.4572-0.1524-1.4393-0.1524h-2.3707v4.0132h1.0837q1.6256 0 2.032-0.254 0.42333-0.254 0.59267-1.3716h0.88053v4.6228h-0.88053q-0.1016-0.54186-0.11854-0.6096-0.0677-0.27093-0.23706-0.57573-0.1524-0.32173-0.508-0.47413-0.254-0.13547-0.54187-0.16933-0.28786-0.03387-1.0668-0.03387h-1.2531v2.794q0 1.1853 0.4064 1.5917 0.42333 0.38947 1.6933 0.38947 1.3716 0 2.1844-0.32173 0.4572-0.18627 0.8128-0.508 0.47414-0.42333 0.74507-1.6764h0.8636v3.7761q-0.82974-0.08467-1.4732-0.11853-0.62653-0.03387-1.7611-0.03387h-7.2136v-0.89746q0.52493 0 0.762-0.08467 0.254-0.1016 0.49106-0.33867 0.1524-0.1524 0.22014-0.32173 0.0847-0.18627 0.0847-0.4064v-7.0612q0-1.3208-0.28786-1.6933-0.27094-0.38947-1.3039-0.49107z"/>
   <path d="m243.21 8.167v3.6745h-0.93133q-0.18627-0.64346-0.37253-0.94826-0.16934-0.32173-0.5588-0.7112-1.1176-1.0837-2.5569-1.0837-1.7103 0-2.7093 1.4393-0.99906 1.4393-0.99906 3.9116 0 2.4215 0.99906 3.8439 0.99907 1.4224 2.7093 1.4224 1.5579 0 2.5569-1.1007 0.3048-0.3556 0.47413-0.69426 0.16933-0.3556 0.4064-1.0837h0.94826v2.9803l-0.72813 0.32173q-0.8636 0.32173-1.9473 0.52493-1.0837 0.2032-1.9981 0.2032-2.6416 0-4.2333-1.7103-1.5748-1.7272-1.5748-4.6059 0-3.1496 1.778-4.9615 0.77893-0.79587 1.8288-1.2361 1.0668-0.44027 2.2013-0.44027 0.9144 0 2.4723 0.28787 0.55879 0.1016 0.66039 0.11853 0.1016 0 0.3048 0 0.32174 0 0.52494-0.033867t0.35559-0.0508z"/>
  </g>
  <g fill="#082d49" stroke-width=".26458" aria-label="CAPTIONING BROWSER">
   <path d="m42.838 23.168v3.6745h-0.93133q-0.18627-0.64347-0.37253-0.94826-0.16933-0.32173-0.5588-0.7112-1.1176-1.0837-2.5569-1.0837-1.7103 0-2.7093 1.4393-0.99906 1.4393-0.99906 3.9116 0 2.4215 0.99906 3.8439t2.7093 1.4224q1.5579 0 2.5569-1.1007 0.3048-0.3556 0.47413-0.69427 0.16933-0.3556 0.4064-1.0837h0.94826v2.9803l-0.72813 0.32173q-0.8636 0.32173-1.9473 0.52493-1.0837 0.2032-1.9981 0.2032-2.6416 0-4.2333-1.7103-1.5748-1.7272-1.5748-4.6059 0-3.1496 1.778-4.9615 0.77893-0.79586 1.8288-1.2361 1.0668-0.44027 2.2013-0.44027 0.9144 0 2.4723 0.28787 0.5588 0.1016 0.6604 0.11853 0.1016 0 0.3048 0 0.32173 0 0.52493-0.03387t0.3556-0.0508z"/>
   <path d="m42.939 35.411v-0.88053q0.4572-0.03387 0.6604-0.11853 0.22013-0.08467 0.44027-0.3048 0.33867-0.33867 0.47413-0.72813l0.42333-1.0329 2.3368-6.0113q0.22013-0.59267 0.3048-0.93133 0.1016-0.33867 0.1016-0.57573 0-0.37253-0.23707-0.52493-0.22013-0.16933-0.79586-0.16933v-0.93133h4.0809q0 0.4064 0 0.508 0.01693 0.08467 0.08467 0.4064 0.1016 0.32173 0.18627 0.57573 0.08467 0.254 0.3556 0.9144l2.54 6.4685q0.28787 0.74506 0.47413 1.1176 0.2032 0.37253 0.44027 0.69426 0.254 0.3048 0.508 0.44027 0.254 0.13547 0.67733 0.18627v0.89746h-5.6557v-0.88053q0.8636 0 1.1684-0.2032 0.32173-0.22013 0.32173-0.77893v-0.08467q0-0.28787-0.1016-0.54187l-0.23707-0.67733-0.47413-1.3208h-3.8947l-0.508 1.3716q-0.13547 0.33867-0.23707 0.77893-0.1016 0.42333-0.1016 0.6096 0 0.4572 0.28787 0.6604 0.3048 0.18627 1.0668 0.18627v0.88053zm5.6557-8.636-1.0668 2.9803h3.048l-1.0837-3.0819q-0.11853-0.32173-0.22013-0.67733-0.1016-0.37253-0.1016-1.0668h-0.22013v0.18627q0 0.49107-0.0508 0.74506-0.0508 0.254-0.3048 0.9144z"/>
   <path d="m56.266 35.411v-0.89746h0.1016q0.8636 0 1.1684-0.3556 0.16933-0.18627 0.23707-0.5588 0.06773-0.37253 0.06773-1.27v-5.9436q0-0.98213-0.0508-1.3039-0.0508-0.32173-0.254-0.54186-0.18627-0.23707-0.4572-0.32173-0.254-0.1016-0.79586-0.1016v-0.9144h5.4187l1.2531 0.01693q0.44027 0 0.8128 0.13547 0.37253 0.11853 0.8636 0.38947 0.8128 0.47413 1.2531 1.2531t0.44027 1.7611q0 1.5748-1.1007 2.54-1.1007 0.9652-2.9125 0.9652-0.94826 0-2.2691-0.254v2.3368q0 1.3377 0.37253 1.7611 0.37253 0.42333 1.5748 0.42333v0.88053zm3.7761-11.024v4.4535q0.67733 0.11853 0.8128 0.13547 0.13547 0.01693 0.49107 0.01693 1.27 0 1.9473-0.57573 0.69426-0.59266 0.69426-1.6595 0-2.3876-3.1665-2.3876z"/>
   <path d="m66.442 26.758v-3.7084q0.77893 0.11853 1.1176 0.13547 0.33867 0.01693 1.3716 0.01693h4.7413q0.89746 0 1.1853-0.01693 0.3048-0.01693 1.2531-0.16933v3.7423h-0.9144q-0.28787-1.3039-0.84666-1.8457-0.5588-0.5588-1.6087-0.5588l-0.37253 0.01693v7.9756q0 1.3716 0.3556 1.7949 0.37253 0.4064 1.5748 0.4064v0.8636h-6.0791v-0.8636h0.16933q0.6096 0 0.8636-0.06773 0.27093-0.06773 0.52493-0.33867 0.23707-0.2032 0.3048-0.54187 0.06773-0.3556 0.06773-1.27v-7.9586h-0.28787q-0.88053 0-1.4055 0.37253-0.11853 0.08467-0.23707 0.2032-0.11853 0.11853-0.254 0.3048-0.22013 0.3048-0.33867 0.6096-0.11853 0.3048-0.23707 0.89746z"/>
   <path d="m76.179 24.117v-0.9144h5.842v0.9144q-0.62653 0-0.89746 0.0508-0.254 0.0508-0.52493 0.27093-0.254 0.22013-0.32173 0.54187-0.06773 0.32173-0.06773 1.3716v5.9605q0 1.0329 0.0508 1.2869 0.0508 0.23707 0.3048 0.49107 0.254 0.23707 0.5588 0.33867 0.3048 0.08467 0.89746 0.08467v0.89746h-5.8251v-0.89746q0.62653 0 0.89746-0.06773 0.28787-0.08467 0.52493-0.3048 0.23707-0.22013 0.28787-0.47413 0.0508-0.27093 0.0508-1.3885v-5.9775q0-0.93133-0.06773-1.27t-0.28787-0.52493q-0.2032-0.2032-0.508-0.28787-0.3048-0.1016-0.9144-0.1016z"/>
   <path d="m82.919 29.383q0-2.8956 1.6595-4.7075 1.6764-1.8288 4.3349-1.8288 2.6247 0 4.2841 1.8119 1.6764 1.7949 1.6764 4.6567 0 2.8617-1.6764 4.6736-1.6595 1.7949-4.2841 1.7949-2.6585 0-4.3349-1.778-1.6595-1.7949-1.6595-4.6228zm5.9944-5.3509q-1.524 0-2.5569 1.5071-1.0329 1.5071-1.0329 3.7761 0 2.286 1.016 3.7931 1.016 1.4901 2.5739 1.4901 1.5409 0 2.5569-1.5071 1.016-1.5071 1.016-3.7761 0-2.2691-1.016-3.7761-1.016-1.5071-2.5569-1.5071z"/>
   <path d="m95.974 35.411v-0.89746q0.93133 0 1.27-0.4572 0.33867-0.47413 0.33867-1.778v-7.0273q0-0.22013-0.06773-0.37253-0.0508-0.16933-0.22013-0.37253-0.1524-0.2032-0.4064-0.28787-0.254-0.1016-0.77893-0.1016v-0.9144h4.1995q0.1016 0.4572 0.16933 0.6604 0.0847 0.18627 0.16934 0.38947l0.82973 1.3039 2.8787 4.3857q0.16933 0.23707 0.28786 0.47413 0.11854 0.23707 0.23707 0.47413 0.22013 0.44027 0.32173 0.762 0.11854 0.32173 0.28787 0.98213l0.22013-0.01693-0.11853-0.88053q-0.1016-0.94826-0.1016-2.1505v-3.302q0-1.3547-0.32173-1.7611-0.32174-0.4064-1.4055-0.4064v-0.9144h4.8768v0.9144q-0.99906 0-1.3377 0.47413-0.33866 0.4572-0.33866 1.8119v6.2823l-0.0169 1.7272 0.13547 1.0329-1.8965 0.37253q-0.44027-0.99906-0.762-1.5917-0.3048-0.6096-0.74506-1.3039l-3.6237-5.588-0.44027-0.762q-0.16933-0.38947-0.27093-0.6604-0.1016-0.28787-0.22013-0.72813h-0.1524l0.0508 0.67733 0.0508 0.762v5.6896q0 0.89746 0.06773 1.2531 0.06773 0.3556 0.27093 0.57573 0.22013 0.22013 0.47413 0.3048 0.27093 0.08467 0.88053 0.13547v0.82973z"/>
   <path d="m109.13 24.117v-0.9144h5.842v0.9144q-0.62653 0-0.89746 0.0508-0.254 0.0508-0.52493 0.27093-0.254 0.22013-0.32174 0.54187-0.0677 0.32173-0.0677 1.3716v5.9605q0 1.0329 0.0508 1.2869 0.0508 0.23707 0.3048 0.49107 0.254 0.23707 0.5588 0.33867 0.3048 0.08467 0.89746 0.08467v0.89746h-5.825v-0.89746q0.62653 0 0.89746-0.06773 0.28787-0.08467 0.52494-0.3048 0.23706-0.22013 0.28786-0.47413 0.0508-0.27093 0.0508-1.3885v-5.9775q0-0.93133-0.0677-1.27t-0.28787-0.52493q-0.2032-0.2032-0.508-0.28787-0.3048-0.1016-0.9144-0.1016z"/>
   <path d="m115.52 35.411v-0.89746q0.93133 0 1.27-0.4572 0.33866-0.47413 0.33866-1.778v-7.0273q0-0.22013-0.0677-0.37253-0.0508-0.16933-0.22013-0.37253-0.1524-0.2032-0.4064-0.28787-0.254-0.1016-0.77893-0.1016v-0.9144h4.1994q0.1016 0.4572 0.16934 0.6604 0.0847 0.18627 0.16933 0.38947l0.82973 1.3039 2.8787 4.3857q0.16934 0.23707 0.28787 0.47413t0.23707 0.47413q0.22013 0.44027 0.32173 0.762 0.11853 0.32173 0.28786 0.98213l0.22014-0.01693-0.11854-0.88053q-0.1016-0.94826-0.1016-2.1505v-3.302q0-1.3547-0.32173-1.7611-0.32173-0.4064-1.4055-0.4064v-0.9144h4.8768v0.9144q-0.99907 0-1.3377 0.47413-0.33867 0.4572-0.33867 1.8119v6.2823l-0.0169 1.7272 0.13546 1.0329-1.8965 0.37253q-0.44026-0.99906-0.76199-1.5917-0.3048-0.6096-0.74507-1.3039l-3.6237-5.588-0.44026-0.762q-0.16933-0.38947-0.27093-0.6604-0.1016-0.28787-0.22014-0.72813h-0.1524l0.0508 0.67733 0.0508 0.762v5.6896q0 0.89746 0.0677 1.2531 0.0677 0.3556 0.27093 0.57573 0.22013 0.22013 0.47413 0.3048 0.27093 0.08467 0.88053 0.13547v0.82973z"/>
   <path d="m139.73 22.999v3.7592h-0.91439q-0.3048-0.84666-0.57574-1.2531-0.27093-0.4064-0.77893-0.77893-0.49106-0.38947-1.0668-0.57573-0.55879-0.18627-1.1515-0.18627-1.6595 0-2.6416 1.4563-0.98214 1.4563-0.98214 3.9116 0 2.3876 0.99907 3.81 0.99906 1.4224 2.6924 1.4224 0.54187 0 1.0668-0.1524 0.52493-0.1524 0.82973-0.38947 0.32174-0.254 0.32174-0.9144v-0.1016l-0.0169-0.4572-0.0169-0.57573q0-0.2032-0.0847-0.38946-0.0847-0.2032-0.22013-0.33867-0.18627-0.22013-0.508-0.3048-0.3048-0.1016-0.84666-0.1016h-0.44027v-0.9144h5.7573v0.93133q-0.49106 0-0.72813 0.06773t-0.42333 0.27093q-0.16934 0.2032-0.23707 0.6604-0.0677 0.44027-0.0677 1.5071 0 0.4064 0.0169 0.67733 0.0169 0.254 0.0677 0.62653l-0.82973 0.33867q-0.82973 0.32173-1.9304 0.52493-1.0837 0.2032-1.9135 0.2032-2.7601 0-4.3349-1.6764-1.5579-1.6933-1.5579-4.6567 0-3.048 1.6256-4.826 1.6256-1.778 4.4196-1.778 0.89747 0 1.6764 0.16933l0.54187 0.1016q0.1524 0.03387 0.54186 0.06773 0.4064 0.03387 0.59267 0.03387 0.4572 0 0.59266-0.01693 0.13547-0.03387 0.52493-0.1524z"/>
   <path d="m146.84 35.411v-0.93133q0.98213 0 1.3039-0.44027 0.33867-0.4572 0.33867-1.8119v-5.9097q0-1.0668-0.0508-1.3208-0.0508-0.27093-0.3048-0.52493-0.22013-0.18627-0.4572-0.27093-0.22013-0.08467-0.72813-0.08467v-0.9144h5.588q1.5409 0 2.5569 0.4572 0.71119 0.32173 1.1515 0.99906 0.4572 0.67733 0.4572 1.4563 0 0.69426-0.32173 1.2869-0.32174 0.59267-0.93134 0.9652-0.11853 0.06773-0.35559 0.18627-0.22014 0.1016-0.7112 0.254 0.44026 0.08467 0.74506 0.2032 0.32173 0.1016 0.62653 0.27093 0.762 0.42333 1.1853 1.1515 0.42334 0.72813 0.42334 1.6595 0 1.3547-0.88053 2.3537-0.8636 0.98213-2.0659 0.98213l-1.2869-0.01693zm3.9285-11.007v3.9793h1.0837q1.27 0 1.8457-0.44027 0.6604-0.5588 0.6604-1.5409 0-1.9981-2.5739-1.9981zm1.1515 5.1477h-1.2192v3.7423q0.0508 0.4064 0.3048 0.62653 0.37253 0.38947 1.2531 0.38947 0.762 0 1.1345-0.1016 0.38946-0.11853 0.77893-0.44027 0.762-0.64346 0.762-1.778 0-1.4055-0.99907-2.0151-0.42333-0.22013-0.88053-0.32173-0.44027-0.1016-1.1345-0.1016z"/>
   <path d="m158.22 24.15v-0.94826h5.3001l1.3547 0.01693q0.8128 0 1.6256 0.33867t1.2869 1.0837q0.47413 0.74506 0.47413 1.7103 0 2.54-2.8956 3.2343l1.8288 2.8956 0.54187 0.84666q0.1016 0.16933 0.27093 0.42333 0.18627 0.254 0.22013 0.3048 0.3048 0.38947 1.0329 0.49107v0.8636h-3.0141q-0.33867-0.762-0.508-1.1007t-0.7112-1.2531l-1.9643-3.302-1.0668-0.08467v2.5569q0 1.0499 0.0677 1.3716 0.0847 0.32173 0.42333 0.6096 0.2032 0.18627 0.47414 0.254 0.28786 0.06773 0.89746 0.06773v0.88053h-5.6388v-0.88052q0.52494 0 0.762-0.06773 0.254-0.06773 0.4572-0.28787 0.22013-0.22013 0.28787-0.57573 0.0847-0.3556 0.0847-1.2192v-6.0113q0-0.77893-0.0847-1.1684-0.0847-0.38946-0.27094-0.6096-0.18626-0.22013-0.47413-0.32173-0.28786-0.11853-0.762-0.11853zm3.7931 0.22013v4.1148q0.42333 0.06773 0.6096 0.08467 0.18627 0.01693 0.47413 0.01693 1.3547 0 2.0828-0.5588 0.74506-0.57573 0.74506-1.6256 0-0.74506-0.44026-1.2869-0.44027-0.54187-1.0329-0.64346-0.59267-0.11853-1.2869-0.11853l-0.59267 0.01693z"/>
   <path d="m169.18 29.383q0-2.8956 1.6595-4.7075 1.6764-1.8288 4.3349-1.8288 2.6247 0 4.2841 1.8119 1.6764 1.7949 1.6764 4.6567 0 2.8617-1.6764 4.6736-1.6595 1.7949-4.2841 1.7949-2.6585 0-4.3349-1.778-1.6595-1.7949-1.6595-4.6228zm5.9944-5.3509q-1.524 0-2.5569 1.5071-1.0329 1.5071-1.0329 3.7761 0 2.286 1.016 3.7931 1.016 1.4901 2.5739 1.4901 1.5409 0 2.5569-1.5071 1.016-1.5071 1.016-3.7761 0-2.2691-1.016-3.7761-1.016-1.5071-2.5569-1.5071z"/>
   <path d="m180.51 24.117v-0.9144h5.5711v0.93133q-0.42334 0-0.57573 0.03387-0.13547 0.01693-0.37254 0.11853-0.33866 0.1016-0.54186 0.38947t-0.2032 0.67733q0 0.3556 0.1016 0.74506l0.28786 1.1684 0.77894 2.9633q0.13546 0.5588 0.16933 0.72813 0.0339 0.16933 0.1016 0.6604 0.0847 0.47413 0.11853 0.82973 0.0508 0.33867 0.0508 0.84666l0.16933-0.0508 0.1016-0.62653q0.0677-0.54187 0.18627-1.0499 0.13547-0.52493 0.32173-1.1345l1.3377-4.4027q0.28787-0.89746 0.38947-1.3885 0.11853-0.49107 0.254-1.3885l1.8627-0.33867 0.254 1.3716 0.54187 1.5748 1.4224 4.4873q0.1016 0.33867 0.13547 0.508 0.1016 0.38947 0.13547 0.57573 0.11853 0.59266 0.1524 0.93133 0.0508 0.33867 0.0508 0.93133l0.18626-0.0508 0.0677-0.762q0.1016-0.69426 0.18626-1.1007 0.0847-0.4064 0.27094-1.1515l0.67733-2.7093q0.18626-0.7112 0.28786-1.2531 0.1016-0.5588 0.1016-0.84666 0-0.74506-0.508-1.0329-0.2032-0.1016-0.4064-0.1524-0.18626-0.0508-0.74506-0.1016v-0.93133h4.9784v0.94826q-0.6604 0.06773-1.016 0.38947-0.23706 0.2032-0.4064 0.54186-0.1524 0.33867-0.32173 1.016l-0.33867 1.1853-1.4732 5.4695q-0.2032 0.77893-0.3048 1.3039-0.1016 0.52493-0.18627 1.4055l-2.2691 0.3048q-0.16933-0.89746-0.32173-1.4732-0.1524-0.57573-0.4572-1.5409l-1.2869-4.1656q-0.18627-0.52493-0.27094-1.1853-0.0677-0.6604-0.0847-1.1007 0-0.44027 0-0.84666l-0.18627 0.03387q-0.11853 1.0837-0.23707 1.6595-0.1016 0.57573-0.37253 1.4393l-1.3547 4.3011-0.42333 1.4393q-0.0169 0.08467-0.0847 0.47413-0.0677 0.38946-0.1016 0.64346l-2.2521 0.33867-0.13547-0.99906-0.4572-1.6933-1.6087-6.1129q-0.0847-0.37253-0.22013-0.84666-0.13547-0.49107-0.3048-0.94826-0.16933-0.47413-0.47413-0.7112-0.3048-0.23707-0.94827-0.3556z"/>
   <path d="m198.39 35.496v-3.7423h0.91439q0.3048 1.3547 1.0837 2.0659 0.77893 0.7112 1.9473 0.7112 1.016 0 1.6933-0.57573 0.69426-0.59267 0.69426-1.4732 0-0.7112-0.44027-1.2023-0.44026-0.508-1.524-0.98213l-1.1007-0.49107q-1.5579-0.7112-2.3029-1.5917-0.72813-0.89746-0.72813-2.0997 0-1.4732 1.016-2.3707 1.0329-0.9144 2.7093-0.9144 0.52493 0 1.6595 0.2032t1.4393 0.2032q0.18627 0 0.3556-0.03387t0.52493-0.1524v3.7084h-0.93133q-0.1016-0.6604-0.22013-0.9652-0.11853-0.32173-0.4064-0.67733-0.8128-1.0499-2.1675-1.0499-0.8636 0-1.3885 0.47413-0.52493 0.47413-0.52493 1.2361 0 0.67733 0.44026 1.0837 0.4064 0.42333 1.9643 1.1007 0.9144 0.38947 1.4055 0.64347 0.49106 0.254 0.93133 0.5588 1.4732 1.0499 1.4732 2.8787 0 1.6933-1.1176 2.7263t-2.9464 1.0329q-0.44026 0-2.286-0.32173-0.9652-0.16933-1.4055-0.16933-0.20319 0-0.35559 0.03387-0.13547 0.03387-0.4064 0.1524z"/>
   <path d="m207.94 24.117v-0.9144h7.0781q0.99906 0 1.3885-0.01693 0.4064-0.01693 1.6256-0.1524v3.7253h-0.9144q-0.1524-0.6604-0.3048-1.0329-0.1524-0.37253-0.44027-0.67733-0.3556-0.38947-0.82973-0.52493-0.4572-0.1524-1.4393-0.1524h-2.3707v4.0132h1.0837q1.6256 0 2.032-0.254 0.42333-0.254 0.59266-1.3716h0.88053v4.6228h-0.88053q-0.1016-0.54187-0.11853-0.6096-0.0677-0.27093-0.23707-0.57573-0.1524-0.32173-0.508-0.47413-0.254-0.13547-0.54186-0.16933-0.28787-0.03387-1.0668-0.03387h-1.2531v2.794q0 1.1853 0.40639 1.5917 0.42334 0.38947 1.6933 0.38947 1.3716 0 2.1844-0.32173 0.4572-0.18627 0.8128-0.508 0.47413-0.42333 0.74506-1.6764h0.8636v3.7761q-0.82973-0.08467-1.4732-0.11853-0.62654-0.03387-1.7611-0.03387h-7.2136v-0.89746q0.52493 0 0.76199-0.08467 0.254-0.1016 0.49107-0.33867 0.1524-0.1524 0.22013-0.32173 0.0847-0.18627 0.0847-0.4064v-7.0612q0-1.3208-0.28787-1.6933-0.27093-0.38947-1.3039-0.49107z"/>
   <path d="m219.42 24.15v-0.94826h5.3001l1.3547 0.01693q0.8128 0 1.6256 0.33867t1.2869 1.0837q0.47413 0.74506 0.47413 1.7103 0 2.54-2.8956 3.2343l1.8288 2.8956 0.54187 0.84666q0.1016 0.16933 0.27093 0.42333 0.18627 0.254 0.22013 0.3048 0.3048 0.38947 1.0329 0.49107v0.8636h-3.0141q-0.33867-0.762-0.508-1.1007t-0.7112-1.2531l-1.9643-3.302-1.0668-0.08467v2.5569q0 1.0499 0.0677 1.3716 0.0847 0.32173 0.42334 0.6096 0.2032 0.18627 0.47413 0.254 0.28786 0.06773 0.89746 0.06773v0.88053h-5.6388v-0.88052q0.52494 0 0.762-0.06773 0.254-0.06773 0.4572-0.28787 0.22013-0.22013 0.28787-0.57573 0.0847-0.3556 0.0847-1.2192v-6.0113q0-0.77893-0.0847-1.1684-0.0847-0.38946-0.27094-0.6096-0.18626-0.22013-0.47413-0.32173-0.28786-0.11853-0.762-0.11853zm3.7931 0.22013v4.1148q0.42334 0.06773 0.6096 0.08467 0.18627 0.01693 0.47413 0.01693 1.3547 0 2.0828-0.5588 0.74507-0.57573 0.74507-1.6256 0-0.74506-0.44027-1.2869t-1.0329-0.64346q-0.59267-0.11853-1.2869-0.11853l-0.59267 0.01693z"/>
  </g>
 </g>
</svg>
