<?xml version="1.0" encoding="UTF-8"?>
<svg width="200" height="200" version="1.1" viewBox="0 0 200 200" xmlspace="preserve" xmlns="http://www.w3.org/2000/svg" xmlnscc="http://creativecommons.org/ns#" xmlnsdc="http://purl.org/dc/elements/1.1/" xmlnsrdf="http://www.w3.org/1999/02/22-rdf-syntax-ns#">
<defs><clipPath id="clipPath897"><rect transform="scale(1,-1)" x="434.88" y="-2921.3" width="1777.3" height="1777.3" fill="none" stroke="#618f8e" stroke-width="6.797"/></clipPath></defs><g transform="matrix(1.3333 0 0 -1.3333 3.4776e-7 386.09)"><g transform="matrix(.084396 0 0 .085626 -36.702 41.619)" clip-path="url(#clipPath897)"><g fill="#082d49"><path d="m3.5 441.06c36.035-22.879 70.219-34.325 103.95-34.325 44.809 0 71.606 20.684 71.606 47.52 0 7.922-2.774 16.281-7.852 23.32-10.629 14.961-37.887 25.527-76.695 44.004-52.668 25.078-79.926 45.762-79.926 84.031 0 47.082 42.047 79.2 116.43 79.2 20.789 0 45.738-2.633 74.843-7.918v-50.157c-25.41 18.489-51.285 27.715-79.929 27.715-37.418 0-59.594-17.148-59.594-39.601 0-26.395 25.871-39.598 70.684-59.832 20.793-9.25 42.964-18.04 64.218-33.875 18.942-14.082 29.567-34.766 29.567-56.77 0-48.836-51.742-91.953-129.36-91.953-24.945 0-52.668 5.273-83.16 14.512l-14.781 54.129"/><path d="m436.39 380.34h-85.93c17.094 14.508 18.48 30.347 18.48 52.801v193.16c0 22.429-1.386 38.269-18.48 52.351h85.93c-17.094-14.082-18.481-29.922-18.481-52.351v-66.887h169.09v66.887c0 22.429-1.391 38.269-18.481 52.351h85.93c-17.09-14.082-18.476-29.922-18.476-52.351v-193.16c0-22.454 1.386-38.293 18.476-52.801h-85.93c17.09 14.508 18.481 30.347 18.481 52.801v91.953h-169.09v-91.953c0-22.454 1.387-38.293 18.481-52.801"/><path d="m802.75 433.14v193.16c0 22.429-1.375 38.269-18.477 52.351h171.86v-46.632c-15.711 11.437-33.719 16.281-57.293 16.281-13.387 0-29.102-2.199-46.653-5.723v-84.043h76.692v-43.555c-9.25 10.559-24.953 10.997-48.516 10.997h-28.176v-106.91c24.016-3.524 43.418-5.286 57.278-5.286 31.882 0 59.597 7.922 86.867 25.078l-21.719-58.511h-190.34c17.102 14.508 18.477 30.347 18.477 52.801"/><path d="m1389 626.3v-253c-26.8 0.879-44.81 18.476-68.38 47.082l-161.69 194.03v-181.27c0-22.454 0.92-38.293 18.01-52.801h-71.14c17.09 14.508 18.47 30.347 18.47 52.801v193.16c0 22.429-1.38 38.269-18.47 52.351h63.75l185.26-223.96v171.61c0 22.429-1.38 38.269-18.48 52.351h71.15c-17.09-14.082-18.48-29.922-18.48-52.351"/><path d="m1678.2 380.34h-85.93c17.09 14.508 18.48 30.347 18.48 52.801v212.96h-25.41c-31.87 0-54.05-3.961-68.37-16.289l15.71 48.839h224.06l-14.78-47.961c-9.69 11.008-24.95 15.411-47.11 15.411h-35.12v-212.96c0-22.454 1.38-38.293 18.47-52.801"/><path d="m1909.7 415.54c-31.89 28.602-49.9 69.082-49.9 111.77 0 33.437 11.09 65.547 32.34 92.832 32.8 42.246 82.7 65.554 139.53 65.554 49.42 0 92.86-15.398 122.88-42.234 32.34-28.605 49.9-68.644 49.9-113.96 0-41.347-19.86-83.152-54.98-113.95-31.42-27.726-72.07-42.238-117.8-42.238-48.97 0-92.4 15.84-121.97 42.238zm3.69 117.04c0-74.355 51.75-127.16 117.35-127.16 68.38 0 120.12 49.715 120.12 121.88 0 74.355-51.74 126.72-117.35 126.72-68.37 0-120.12-49.289-120.12-121.44"/><path d="m2609.6 626.3v-253c-26.81 0.879-44.83 18.476-68.39 47.082l-161.69 194.03v-181.27c0-22.454 0.92-38.293 18.01-52.801h-71.14c17.09 14.508 18.47 30.347 18.47 52.801v193.16c0 22.429-1.38 38.269-18.47 52.351h63.76l185.25-223.96v171.61c0 22.429-1.38 38.269-18.48 52.351h71.14c-17.08-14.082-18.46-29.922-18.46-52.351"/><path d="m86.238 11.609c-10.695-8.25-19.871-11.609-31.195-11.609-35.16 0-55.043 37.312-55.043 103.67 0 59.035 16.207 106.13 55.66 106.13 7.9531 0 18.656-3.985 28.141-10.711v-26.614c-7.957 7.958-17.742 12.852-26.309 12.852-23.238 0-29.969-29.055-29.969-80.43 0-54.758 7.9532-80.437 30.887-80.437 8.5703 0 14.988 3.3555 27.828 14.684v-27.539"/><path d="m470.38 209.8c36.391 0 54.742-48.946 54.742-104.9 0-71.562-26.605-104.9-54.742-104.9-30.887 0-54.746 37.012-54.746 104.9 0 49.844 14.684 104.9 54.746 104.9zm0.305-185.34c16.82 0 26.914 29.977 26.914 80.437 0 51.375-10.094 80.43-27.528 80.43-21.41 0-26.914-43.73-26.914-80.43 0-51.379 9.786-80.437 27.528-80.437"/><path d="m866.43 207.05h26.3v-179.83h50.457v-24.465h-76.757v204.3"/><path d="m1275 207.05h26.31v-179.83h50.47v-24.465h-76.78v204.3"/><path d="m1683.3 207.05h72.79v-24.473h-46.48v-61.16h42.51v-24.465h-42.51v-69.734h48.93v-24.465h-75.24v204.3"/><path d="m2203.6 12.227c-13.15-8.5547-23.86-12.227-36.11-12.227-40.65 0-67.27 37.312-67.27 104.6 0 64.214 24.78 105.2 64.22 105.2 12.24 0 23.25-3.985 39.16-14.688v-28.137c-16.52 14.668-25.99 19.883-37.94 19.883-27.2 0-39.14-28.445-39.14-82.261 0-51.387 12.23-80.137 41.6-80.137 3.06 0 5.19 0.3086 9.16 0.918v62.703h-18.03v24.453h44.35v-100.31"/><path d="m2547.9 207.05h72.78v-24.473h-46.47v-61.16h42.52v-24.465h-42.52v-69.734h48.92v-24.465h-75.23v204.3"/></g><path d="m1467 2452.6c0 52.15 42.28 94.43 94.41 94.43 52.16 0 94.44-42.28 94.44-94.43s-42.28-94.42-94.44-94.42c-52.13 0-94.41 42.27-94.41 94.42" fill="#231f20"/><path d="m1467 2452.6c0 52.15 42.28 94.43 94.41 94.43 52.16 0 94.44-42.28 94.44-94.43s-42.28-94.42-94.44-94.42c-52.13 0-94.41 42.27-94.41 94.42z" fill="none" stroke="#231f20" stroke-miterlimit="3.8636" stroke-width=".485"/><path d="m812.53 1419.4c126.18-103.89 235.06-129.95 342.31-134.54 24.18-1.04 68.93 3.46 94.75 7.16 138.14 20.17 292.96 105.09 390.59 268.64-73.75-163.55-202.72-284.56-389.01-327.55-46.14-10.65-96.03-15.8-142.5-12.74-4.67 0.31-8.74 1.03-13.08 1.64 0 0-3 0.84-3.43-0.7-0.18-1.71 7.14-3.6 7.14-3.6 49.01-13.57 106.97-22.6 160.8-21.93 314.28 3.89 572.72 235.43 577.82 587.86 0.53 36.23-1.4 35.97-3.33 56.05 33.21-114.52 42.34-199.55-16.72-347.55-0.44-0.77 3.8-2.15 2.55-0.73 100.64 116.84 110.05 294.4 73.04 409.75-24.29 70.18-60.11 131.85-116.82 184.48-75.18 69.77-146.17 96.32-226.79 137.29-135.7 68.99-184.9 156.79-184.9 233.23 0 106.77 87.97 191.65 193.32 193.33 8.46 0.13 10.58 0.05 19.21-1.01 0 0 5.57-0.6 2.53 1.94-7.55 4.98-18.99 6.84-24.52 7.83-18.13 3.22-25.72 2.18-35.4 2.15-112-0.39-233.16-94.12-236.28-239.37-1.55-72.54 34.99-130.7 76.44-190.75 27.67-40.11 37.29-50.04 71.11-96.34 122.44-167.59 106.24-330.03 95.72-379.47-49.3-231.53-225.51-395.02-479.32-393.09-85.533 0.65-162.32 22.28-233.96 63.19 0 0-5.246 3.49-7.461 2.44-2.5-1.2 6.187-7.61 6.187-7.61" fill="#082d49"/><path d="m812.53 1419.4c126.18-103.89 235.06-129.95 342.31-134.54 24.18-1.04 68.93 3.46 94.75 7.16 138.14 20.17 292.96 105.09 390.59 268.64-73.75-163.55-202.72-284.56-389.01-327.55-46.14-10.65-96.03-15.8-142.5-12.74-4.67 0.31-8.74 1.03-13.08 1.64 0 0-3 0.84-3.43-0.7-0.18-1.71 7.14-3.6 7.14-3.6 49.01-13.57 106.97-22.6 160.8-21.93 314.28 3.89 572.72 235.43 577.82 587.86 0.53 36.23-1.4 35.97-3.33 56.05 33.21-114.52 42.34-199.55-16.72-347.55-0.44-0.77 3.8-2.15 2.55-0.73 100.64 116.84 110.05 294.4 73.04 409.75-24.29 70.18-60.11 131.85-116.82 184.48-75.18 69.77-146.17 96.32-226.79 137.29-135.7 68.99-184.9 156.79-184.9 233.23 0 106.77 87.97 191.65 193.32 193.33 8.46 0.13 10.58 0.05 19.21-1.01 0 0 5.57-0.6 2.53 1.94-7.55 4.98-18.99 6.84-24.52 7.83-18.13 3.22-25.72 2.18-35.4 2.15-112-0.39-233.16-94.12-236.28-239.37-1.55-72.54 34.99-130.7 76.44-190.75 27.67-40.11 37.29-50.04 71.11-96.34 122.44-167.59 106.24-330.03 95.72-379.47-49.3-231.53-225.51-395.02-479.32-393.09-85.533 0.65-162.32 22.28-233.96 63.19 0 0-5.246 3.49-7.461 2.44-2.5-1.2 6.187-7.61 6.187-7.61z" fill="none" stroke="#082d49" stroke-miterlimit="3.8636" stroke-width=".485"/><path d="m1467 2452.6c0 52.15 42.28 94.43 94.41 94.43 52.16 0 94.44-42.28 94.44-94.43s-42.28-94.42-94.44-94.42c-52.13 0-94.41 42.27-94.41 94.42" fill="#082d49"/><path d="m1467 2452.6c0 52.15 42.28 94.43 94.41 94.43 52.16 0 94.44-42.28 94.44-94.43s-42.28-94.42-94.44-94.42c-52.13 0-94.41 42.27-94.41 94.42z" fill="none" stroke="#082d49" stroke-miterlimit="3.8636" stroke-width=".485"/><path d="m934.02 1638.7c0 52.15 42.278 94.43 94.427 94.43 52.14 0 94.42-42.28 94.42-94.43s-42.28-94.43-94.42-94.43c-52.149 0-94.427 42.28-94.427 94.43" fill="#618f75"/><path d="m934.02 1638.7c0 52.15 42.278 94.43 94.427 94.43 52.14 0 94.42-42.28 94.42-94.43s-42.28-94.43-94.42-94.43c-52.149 0-94.427 42.28-94.427 94.43z" fill="none" stroke="#618f75" stroke-miterlimit="3.8636" stroke-width=".485"/><path d="m1777.4 2671.8c-126.18 103.88-235.06 129.94-342.32 134.53-24.17 1.04-68.91-3.46-94.74-7.16-138.14-20.17-292.96-105.08-390.6-268.64 73.765 163.56 202.72 284.56 389.02 327.55 46.14 10.65 96.04 15.81 142.5 12.73 4.68-0.3 8.75-1.02 13.09-1.63 0 0 3-0.84 3.43 0.7 0.17 1.71-7.15 3.6-7.15 3.6-49.01 13.57-106.95 22.6-160.78 21.93-314.3-3.89-572.74-235.43-577.84-587.86-0.531-36.24 1.406-35.97 3.336-56.05-33.211 114.51-42.34 199.55 16.719 347.55 0.433 0.78-3.805 2.15-2.555 0.73-100.65-116.84-110.05-294.4-73.039-409.75 24.289-70.18 60.105-131.85 116.83-184.48 75.164-69.77 146.16-96.32 226.78-137.3 135.7-68.97 184.91-156.78 184.91-233.22 0-106.78-87.98-191.65-193.32-193.33-8.47-0.13-10.58-0.05-19.21 1.01 0 0-5.57 0.6-2.53-1.94 7.54-4.98 18.98-6.84 24.51-7.83 18.14-3.22 25.72-2.19 35.41-2.15 112 0.39 233.17 94.12 236.27 239.37 1.56 72.54-34.98 130.7-76.42 190.75-27.69 40.11-37.31 50.04-71.13 96.34-122.43 167.59-106.23 330.04-95.71 379.47 49.3 231.53 225.5 395.02 479.31 393.09 85.54-0.65 162.32-22.28 233.97-63.19 0 0 5.25-3.49 7.46-2.43 2.5 1.19-6.19 7.61-6.19 7.61" fill="#618f75"/><path d="m1777.4 2671.8c-126.18 103.88-235.06 129.94-342.32 134.53-24.17 1.04-68.91-3.46-94.74-7.16-138.14-20.17-292.96-105.08-390.6-268.64 73.765 163.56 202.72 284.56 389.02 327.55 46.14 10.65 96.04 15.81 142.5 12.73 4.68-0.3 8.75-1.02 13.09-1.63 0 0 3-0.84 3.43 0.7 0.17 1.71-7.15 3.6-7.15 3.6-49.01 13.57-106.95 22.6-160.78 21.93-314.3-3.89-572.74-235.43-577.84-587.86-0.531-36.24 1.406-35.97 3.336-56.05-33.211 114.51-42.34 199.55 16.719 347.55 0.433 0.78-3.805 2.15-2.555 0.73-100.65-116.84-110.05-294.4-73.039-409.75 24.289-70.18 60.105-131.85 116.83-184.48 75.164-69.77 146.16-96.32 226.78-137.3 135.7-68.97 184.91-156.78 184.91-233.22 0-106.78-87.98-191.65-193.32-193.33-8.47-0.13-10.58-0.05-19.21 1.01 0 0-5.57 0.6-2.53-1.94 7.54-4.98 18.98-6.84 24.51-7.83 18.14-3.22 25.72-2.19 35.41-2.15 112 0.39 233.17 94.12 236.27 239.37 1.56 72.54-34.98 130.7-76.42 190.75-27.69 40.11-37.31 50.04-71.13 96.34-122.43 167.59-106.23 330.04-95.71 379.47 49.3 231.53 225.5 395.02 479.31 393.09 85.54-0.65 162.32-22.28 233.97-63.19 0 0 5.25-3.49 7.46-2.43 2.5 1.19-6.19 7.61-6.19 7.61z" fill="none" stroke="#618f75" stroke-miterlimit="3.8636" stroke-width=".485"/><path d="m934.02 1638.7c0 52.15 42.278 94.43 94.427 94.43 52.14 0 94.42-42.28 94.42-94.43s-42.28-94.43-94.42-94.43c-52.149 0-94.427 42.28-94.427 94.43" fill="#618f75"/><path d="m934.02 1638.7c0 52.15 42.278 94.43 94.427 94.43 52.14 0 94.42-42.28 94.42-94.43s-42.28-94.43-94.42-94.43c-52.149 0-94.427 42.28-94.427 94.43z" fill="none" stroke="#618f75" stroke-miterlimit="3.8636" stroke-width=".485"/></g></g></svg>
